<svg id="logo" xmlns="http://www.w3.org/2000/svg" viewBox="0 0 1366 768"><defs><style>.cls-1{fill:#fff;}</style></defs><title>logo</title><path class="cls-1" d="M367,37V325H281a4,4,0,0,1-4-4V311a4,4,0,0,1,4-4l68-4V62L241,58a4,4,0,0,1-4-4l-5-13a4,4,0,0,1,4-4Z"/><polyline class="cls-1" points="295 109 349 109 349 127 295 127"/><polyline class="cls-1" points="349 87 313 87 313 91 349 91"/><path class="cls-1" d="M497,69V283a4,4,0,0,1-4,4H402a4,4,0,0,1-4-4V69a4,4,0,0,1,4-4h91A4,4,0,0,1,497,69ZM416,87V269h63V87"/><polyline class="cls-1" points="479 80 416 152 416 170 479 98"/><polyline class="cls-1" points="479 161 416 233 416 251 479 179"/><polyline class="cls-1" points="456 287 456 332 465 332 465 287"/><polyline class="cls-1" points="429 287 429 595 443 602 443 287"/><polyline class="cls-1" points="522 135 522 212 540 199 540 122"/><path class="cls-1" d="M567,47V608a4,4,0,0,0,4,4h10a4,4,0,0,0,4-4V36"/><path class="cls-1" d="M626.78,320a3.55,3.55,0,0,1-3.78-3.27V199H738.22a3.55,3.55,0,0,1,3.78,3.27v6.18a3.56,3.56,0,0,1-3.78,3.27L637,212v99"/><polyline class="cls-1" points="670.22 181 670.22 198.99 687.22 198.99 687.22 181"/><path class="cls-1" d="M716.5,228.42v36H659.83v-36M674,239v15l28.33-.23V239.05"/><polyline class="cls-1" points="719.33 272.58 659.83 272.58 659.83 283.94 702.33 320.73 714.72 311.74 698.67 297.02 719.33 283.94"/><polyline class="cls-1" points="735 136 952 126 929 153 948 164 984 124 984 97 723 106"/><polyline class="cls-1" points="798 61 808 250 997 236 993 212 838 221 828 61"/><polyline class="cls-1" points="1011 70 998 83 1034 119 1046 107"/><polyline class="cls-1" points="1040 50 1028 62 1063 99 1074 88"/><polygon class="cls-1" points="1029 175 1029 196 1116 199 1114 319 964 322 957 259 923 259 935 347 1137 340 1137 178 1029 175"/><polygon class="cls-1" points="52 262 72 262 443 588 443 608 52 262"/><polygon class="cls-1" points="370 362 369 378 846 378 855 362 370 362"/><polygon class="cls-1" points="378 429 378 444 675 444 684 429 378 429"/><polygon class="cls-1" points="716 333 716 432 730 425 730 333 716 333"/><polygon class="cls-1" points="774 315 774 425 788 432 788 306 774 315"/><polyline class="cls-1" points="569 433 487 503 512 503 569 451"/><polygon class="cls-1" points="585 453 870 738 891 738 594 441 585 441 585 453"/><polygon class="cls-1" points="747 432 666 513 677 524 751 447 969 657 990 657 756 432 747 432"/><polygon class="cls-1" points="745 473 745 518 705 518 705 529 745 529 745 581 759 581 759 529 804 529 804 518 759 518 759 473 745 473"/><rect class="cls-1" x="799.14" y="548.04" width="12.73" height="50.91" transform="translate(-169.6 737.55) rotate(-45)"/><polygon class="cls-1" points="895 419 895 437 940 428 940 464 868 464 868 482 940 482 938 564 961 547 962 483 1030 482 1030 464 962 465 962 425 994 419 994 401 895 419"/><path class="cls-1" d="M1160,377.5v65a3.5,3.5,0,0,1-3.5,3.5h-47a3.5,3.5,0,0,1-3.5-3.5v-83a3.5,3.5,0,0,1,3.5-3.5h94a3.5,3.5,0,0,1,2.48,1L1213,364a3.5,3.5,0,0,1,1,2.48V442.5a3.5,3.5,0,0,1-3.5,3.5h-11a3.5,3.5,0,0,1-3.5-3.5v-65a3.5,3.5,0,0,0-3.5-3.5h-29A3.5,3.5,0,0,0,1160,377.5Zm-36,6.95V424.5a3.5,3.5,0,0,0,3.5,3.5h11a3.5,3.5,0,0,0,3.5-3.5v-47a3.5,3.5,0,0,0-3.5-3.5h-4a3.5,3.5,0,0,0-2.48,1L1125,382A3.5,3.5,0,0,0,1124,384.45Z"/><polygon class="cls-1" points="985 509 985 527 1030 527 1030 544 994 544 994 555 1030 555 1030 572 985 572 985 590 1048 590 1048 509 985 509"/><polyline class="cls-1" points="1066 563 1147 563 1147 656 1039 662 1032 681 1165 673 1164 543 1074 542"/><polyline class="cls-1" points="349 148 313 148 313 152 349 152"/><polyline class="cls-1" points="349 176 313 176 313 180 349 180"/><polyline class="cls-1" points="349 204 313 204 313 208 349 208"/><polyline class="cls-1" points="349 230 313 230 313 234 349 234"/><polyline class="cls-1" points="349 256 313 256 313 260 349 260"/><polyline class="cls-1" points="349 283 313 283 313 287 349 287"/></svg>