<?xml version="1.0" standalone="no"?>
<!DOCTYPE svg PUBLIC "-//W3C//DTD SVG 20010904//EN"
 "http://www.w3.org/TR/2001/REC-SVG-20010904/DTD/svg10.dtd">
<svg version="1.0" xmlns="http://www.w3.org/2000/svg"
 width="260.000000pt" height="260.000000pt" viewBox="0 0 260.000000 260.000000"
 preserveAspectRatio="xMidYMid meet">
<metadata>
Created by potrace 1.11, written by Peter Selinger 2001-2013
</metadata>
<g transform="translate(0.000000,260.000000) scale(0.100000,-0.100000)"
fill="#000000" stroke="none">
<path d="M0 1329 c0 -1269 0 -1271 21 -1300 l20 -29 1280 0 1279 0 0 1300 0
1300 -1300 0 -1300 0 0 -1271z m970 46 l0 -1005 -252 2 -253 3 -3 49 c-2 27 1
53 6 58 8 8 296 37 380 38 20 0 22 5 22 55 l0 55 -105 0 -105 0 0 40 0 39 103
3 102 3 3 48 3 47 -105 0 -106 0 0 40 0 39 103 3 102 3 3 48 3 47 -105 0 -106
0 0 40 0 40 105 0 105 0 0 55 0 54 -102 3 -103 3 -3 43 -3 42 106 0 106 0 -3
53 -3 52 -102 3 -103 3 0 39 0 40 105 0 105 0 0 55 0 55 -105 0 -105 0 0 45 0
45 105 0 105 0 0 45 0 44 -152 3 -153 3 0 60 0 60 153 3 152 3 0 49 0 50 -110
0 -110 0 0 40 0 40 110 0 110 0 0 70 c0 48 -4 72 -12 75 -7 2 -139 9 -293 15
-154 6 -290 13 -302 15 -16 4 -26 19 -38 61 -9 31 -14 63 -11 70 4 12 70 14
381 14 l375 0 0 -1005z m1228 -132 l-3 -1138 -48 0 -47 0 0 1105 0 1105 42 32
c24 18 46 33 51 33 4 0 6 -512 5 -1137z m-514 941 c14 -6 16 -83 16 -774 0
-691 -2 -768 -16 -774 -9 -3 -38 -6 -65 -6 l-49 0 0 -155 0 -155 -50 0 -50 0
0 155 0 155 -35 0 -35 0 0 -260 0 -260 -50 0 -50 0 0 260 0 260 -61 0 c-110 0
-99 -88 -99 778 0 576 3 761 12 770 9 9 81 12 264 12 139 0 259 -3 268 -6z
m214 -976 c-24 -21 -46 -38 -50 -38 -5 0 -8 119 -8 264 l0 264 48 40 47 40 3
-266 3 -267 -43 -37z"/>
<path d="M1250 1813 c0 -119 4 -213 8 -207 18 20 279 383 296 412 6 9 -27 12
-148 12 l-156 0 0 -217z"/>
<path d="M1422 1640 l-172 -230 2 -180 3 -179 172 232 173 232 0 178 c0 97 -1
177 -3 177 -1 0 -80 -104 -175 -230z"/>
<path d="M1421 1090 c-167 -226 -171 -232 -171 -280 l0 -50 175 0 175 0 0 280
c0 154 -2 280 -4 280 -2 0 -81 -104 -175 -230z"/>
</g>
</svg>
